<svg xmlns="http://www.w3.org/2000/svg" xmlns:xlink="http://www.w3.org/1999/xlink" viewBox="0 0 1068.02 553"><defs><style>.cls-1{fill:#fff;}.cls-2{fill:url(#linear-gradient);}.cls-3{fill:#6b6a6a;}.cls-4{fill:#3f0000;}.cls-5{fill:#1e1534;}.cls-6{fill:#f0f3fc;}.cls-7{fill:#ede3fe;}.cls-8,.cls-9{fill:#cfcefa;}.cls-8{filter:url(#filter);}.cls-9{filter:url(#filter-2);}.cls-10{filter:url(#filter-3);}.cls-11,.cls-13,.cls-14,.cls-18{fill:none;}.cls-11,.cls-13,.cls-14{stroke:#3fa9f5;stroke-linecap:round;stroke-linejoin:round;}.cls-11{stroke-width:1.32px;}.cls-12{filter:url(#filter-4);}.cls-13{stroke-width:1.35px;}.cls-14{stroke-width:1.28px;}.cls-15{fill:#3fa9f5;}.cls-16{fill:#ff8bdc;filter:url(#filter-5);}.cls-17{fill:#333;}.cls-18{stroke:#534741;stroke-miterlimit:10;stroke-width:5px;}.cls-19{fill:#006837;}.cls-20{fill:#c1272d;}.cls-21{fill:#a67c52;}</style><linearGradient id="linear-gradient" x1="3.2" y1="5.69" x2="826.01" y2="486.46" gradientUnits="userSpaceOnUse"><stop offset="0" stop-color="#cfcefa"/><stop offset="0.65" stop-color="#e3e5fb"/><stop offset="1" stop-color="#f0f3fc"/></linearGradient><filter id="filter" x="153.05" y="202.05" width="229" height="59" filterUnits="userSpaceOnUse"><feOffset dx="2.13" dy="7.44" input="SourceAlpha"/><feGaussianBlur stdDeviation="5.32" result="blur"/><feFlood flood-color="#cfcefa"/><feComposite operator="in" in2="blur"/><feComposite in="SourceGraphic"/></filter><filter id="filter-2" x="153.05" y="251.05" width="229" height="59" filterUnits="userSpaceOnUse"><feOffset dx="2.13" dy="7.44" input="SourceAlpha"/><feGaussianBlur stdDeviation="5.32" result="blur-2"/><feFlood flood-color="#cfcefa"/><feComposite operator="in" in2="blur-2"/><feComposite in="SourceGraphic"/></filter><filter id="filter-3"><feOffset dx="1" input="SourceAlpha"/><feGaussianBlur result="blur-3"/><feFlood flood-color="#0f0f0f"/><feComposite operator="in" in2="blur-3"/><feComposite in="SourceGraphic"/></filter><filter id="filter-4"><feOffset dx="1" input="SourceAlpha"/><feGaussianBlur result="blur-4"/><feFlood flood-color="#0f0f0f"/><feComposite operator="in" in2="blur-4"/><feComposite in="SourceGraphic"/></filter><filter id="filter-5" x="207.36" y="342.36" width="119" height="58" filterUnits="userSpaceOnUse"><feOffset dx="2.09" dy="7.3" input="SourceAlpha"/><feGaussianBlur stdDeviation="5.21" result="blur-5"/><feFlood flood-color="#ff8bdc"/><feComposite operator="in" in2="blur-5"/><feComposite in="SourceGraphic"/></filter></defs><g id="Layer_2" data-name="Layer 2"><g id="Layer_1-2" data-name="Layer 1"><path class="cls-1" d="M43.4,13.5H838.6a6.1,6.1,0,0,1,6.1,6.1V490.41a6.09,6.09,0,0,1-6.09,6.09H43.4a6.1,6.1,0,0,1-6.1-6.1V19.6A6.1,6.1,0,0,1,43.4,13.5Z"/><path d="M831.19,27V483H50.81V27H831.19M838.6,0H43.4A19.59,19.59,0,0,0,23.81,19.6V490.4A19.59,19.59,0,0,0,43.4,510H838.6a19.59,19.59,0,0,0,19.59-19.6V19.6A19.59,19.59,0,0,0,838.6,0Z"/><rect class="cls-2" x="53" y="42" width="776" height="439"/><rect x="24" y="23" width="834" height="19"/><circle class="cls-3" cx="441" cy="23" r="11"/><circle cx="441" cy="23" r="5"/><circle class="cls-4" cx="441" cy="23" r="2"/><polygon class="cls-5" points="559.13 257.53 559.13 158.37 474.36 176.39 474.36 261 559.13 257.53"/><polygon class="cls-5" points="565.21 257.28 688 252.25 688 130.97 565.21 157.07 565.21 257.28"/><polygon class="cls-5" points="559.13 263.51 474.36 266.11 474.36 349.85 559.13 361.66 559.13 263.51"/><polygon class="cls-5" points="565.21 263.32 565.21 362.5 688 379.61 688 259.56 565.21 263.32"/><rect class="cls-6" x="125.1" y="79" width="280" height="369" rx="23.91"/><rect class="cls-7" x="221.6" y="117" width="87" height="14" rx="4.59"/><rect class="cls-8" x="167.1" y="210.94" width="196" height="26"/><rect class="cls-9" x="167.1" y="260.5" width="196" height="26"/><g class="cls-10"><path class="cls-11" d="M187.05,223.94a3.36,3.36,0,0,1-3.33,3.3,2.78,2.78,0,0,1-2.62-3.3,3.43,3.43,0,0,1,3.2-3.31,2.88,2.88,0,0,1,2.75,3.31Z"/><path class="cls-11" d="M187,230.61a7.26,7.26,0,0,1-3.28.6,6.55,6.55,0,0,1-6.63-7.27,8.11,8.11,0,0,1,7.91-7.28c4.53,0,7,3,6.67,6.93-.26,3-2.16,3.82-3.15,3.64s-1.7-1-1.56-2.62l.35-4"/></g><g class="cls-12"><rect class="cls-13" x="178" y="271.63" width="12" height="9.75"/><path class="cls-14" d="M188.8,271.62h-9.6a4.92,4.92,0,1,1,9.6,0Z"/><path class="cls-15" d="M185.69,276.12a1.5,1.5,0,1,0-1.88,1.45v1.37h.75v-1.37A1.5,1.5,0,0,0,185.69,276.12Z"/></g><rect class="cls-16" x="221.69" y="351" width="86" height="25"/><path class="cls-1" d="M260.06,370.94a.37.37,0,0,1,.52-.12.38.38,0,0,1,.11.52l-.76,1.21a.37.37,0,0,1-.52.12.38.38,0,0,1-.11-.52l.76-1.21ZM256,366.12a.37.37,0,0,1-.26.46.37.37,0,0,1-.46-.26c-.06-.24-.12-.48-.16-.72s-.08-.48-.11-.72,0-.32,0-.48,0-.33,0-.47a9.73,9.73,0,1,1,19.45,0,.38.38,0,1,1-.75,0,9,9,0,0,0-17.94,0c0,.16,0,.31,0,.44s0,.29,0,.43a5,5,0,0,0,.1.66c0,.22.09.44.14.66Zm1,3.41a.38.38,0,0,1-.53,0,.37.37,0,0,1,0-.53,1.89,1.89,0,0,0,.25-.3,2,2,0,0,0,.18-.41,5.21,5.21,0,0,0,0-2.48,9.41,9.41,0,0,1-.21-1.77,7.91,7.91,0,0,1,4.5-6.92,8.57,8.57,0,0,1,3.42-.94,7.18,7.18,0,0,1,3.49.68c2.48,1.17,4.48,3.92,4.9,8.79a.38.38,0,0,1-.35.41.38.38,0,0,1-.4-.35c-.39-4.56-2.22-7.1-4.47-8.17a6.55,6.55,0,0,0-3.13-.61,7.88,7.88,0,0,0-3.12.86,7.16,7.16,0,0,0-4.09,6.26,9.08,9.08,0,0,0,.2,1.62,5.81,5.81,0,0,1,0,2.84,2.46,2.46,0,0,1-.27.59,1.94,1.94,0,0,1-.39.46Zm15.23-2.35a.38.38,0,0,1,.75,0v1.58a.38.38,0,1,1-.75,0v-1.58Zm-14.12,3.89a.38.38,0,0,1-.5-.56,3.44,3.44,0,0,0,1-1.61,6.34,6.34,0,0,0,.13-2.52,8.61,8.61,0,0,1-.13-3,5.71,5.71,0,0,1,.93-2.47.37.37,0,0,1,.53-.1.37.37,0,0,1,.09.52,5.06,5.06,0,0,0-.8,2.15,7.9,7.9,0,0,0,.12,2.71s0,0,0,0a7.12,7.12,0,0,1-.16,2.83,4.15,4.15,0,0,1-1.23,2ZM262,359.74a.39.39,0,0,1-.52-.14.37.37,0,0,1,.14-.51,6,6,0,0,1,1.33-.58,6.29,6.29,0,0,1,3.91.06,5.87,5.87,0,0,1,3.17,2.66,7,7,0,0,1,.65,1.49,12.67,12.67,0,0,1,.48,2.64,20.25,20.25,0,0,1,0,3.13,0,0,0,0,1,0,0l-.26,2.59a.38.38,0,0,1-.75-.07l.27-2.6h0a20.11,20.11,0,0,0,0-3,12.34,12.34,0,0,0-.45-2.48,6,6,0,0,0-.58-1.34,5.12,5.12,0,0,0-2.76-2.32,5.5,5.5,0,0,0-3.45,0,5.26,5.26,0,0,0-1.17.51Zm-.83,10a.38.38,0,0,1-.44.3.37.37,0,0,1-.3-.43,11.32,11.32,0,0,0,.15-1.63,19.08,19.08,0,0,0,0-2c0-.15,0-.34,0-.52a5.31,5.31,0,0,1,.55-3.42,3.79,3.79,0,0,1,.56-.77,4.39,4.39,0,0,1,.77-.63l0,0a6.22,6.22,0,0,1,1.28-.47A4.2,4.2,0,0,1,265,360a.38.38,0,0,1,.35.39.37.37,0,0,1-.39.36,3.71,3.71,0,0,0-1.09.11,6.12,6.12,0,0,0-1.12.41,2.8,2.8,0,0,0-.61.51,2.67,2.67,0,0,0-.45.61,4.68,4.68,0,0,0-.46,3c0,.16,0,.32,0,.54a20.14,20.14,0,0,1,0,2,12.6,12.6,0,0,1-.16,1.74Zm5.3-8.49a.39.39,0,0,1-.13-.52.37.37,0,0,1,.52-.12,2.54,2.54,0,0,1,.34.23l.32.26c1.43,1.3,1.92,3.4,1.95,5.59a26.67,26.67,0,0,1-.74,6,.37.37,0,0,1-.45.28.36.36,0,0,1-.28-.44,26,26,0,0,0,.72-5.83c0-2-.46-3.9-1.71-5a2.61,2.61,0,0,0-.27-.22,1.48,1.48,0,0,0-.27-.19Zm-4.64,11.9a.38.38,0,1,1-.61-.44,5.6,5.6,0,0,0,.67-1.23,7.2,7.2,0,0,0,.43-1.47,15.07,15.07,0,0,0,0-3.43c0-.4-.05-.79-.07-1.19a6.72,6.72,0,0,1,.07-1.69,2.25,2.25,0,0,1,.89-1.43,2.32,2.32,0,0,1,.38-.21,2.73,2.73,0,0,1,.43-.16,2.21,2.21,0,0,1,.35-.08,2.14,2.14,0,0,1,1.85.48,3.35,3.35,0,0,1,.94,1.62c.05.2.1.4.14.61s0,.23.05.34l0,.35a24.71,24.71,0,0,1-.14,4.14,20.53,20.53,0,0,1-.75,3.85.38.38,0,0,1-.47.25.39.39,0,0,1-.25-.48,19.42,19.42,0,0,0,.72-3.7,23.14,23.14,0,0,0,.13-4c0-.1,0-.2,0-.31s0-.2-.05-.3a4.54,4.54,0,0,0-.12-.53,2.63,2.63,0,0,0-.71-1.26,1.42,1.42,0,0,0-1.23-.3l-.26.06a1.61,1.61,0,0,0-.33.12,1.27,1.27,0,0,0-.26.15,1.45,1.45,0,0,0-.58,1,6.63,6.63,0,0,0-.06,1.5c0,.36,0,.76.07,1.18a15,15,0,0,1,0,3.61,8.74,8.74,0,0,1-.47,1.62,7.12,7.12,0,0,1-.76,1.38Zm2.58-9.11a.38.38,0,0,1,.3-.44.38.38,0,0,1,.44.3,18.32,18.32,0,0,1,.29,3.13,19.64,19.64,0,0,1-.25,3.14.37.37,0,1,1-.74-.12,19.31,19.31,0,0,0,.24-3,16.72,16.72,0,0,0-.28-3Zm-.43,7.3a.38.38,0,0,1,.45-.28.37.37,0,0,1,.28.45l-.33,1.48a.38.38,0,0,1-.44.29.38.38,0,0,1-.29-.45l.33-1.49Z"/><path class="cls-17" d="M865.86,500H16.14A16.14,16.14,0,0,0,0,516.14v20.72A16.14,16.14,0,0,0,16.14,553H865.86A16.14,16.14,0,0,0,882,536.86V516.14A16.14,16.14,0,0,0,865.86,500Z"/><polygon class="cls-17" points="86 492 56 492 56 502 86 502 86 492 86 492"/><polygon class="cls-17" points="131 492 101 492 101 502 131 502 131 492 131 492"/><polygon class="cls-17" points="176 492 146 492 146 502 176 502 176 492 176 492"/><polygon class="cls-17" points="221 492 191 492 191 502 221 502 221 492 221 492"/><polygon class="cls-17" points="425 492 236 492 236 502 425 502 425 492 425 492"/><polygon class="cls-17" points="470 492 440 492 440 502 470 502 470 492 470 492"/><polygon class="cls-17" points="515 492 485 492 485 502 515 502 515 492 515 492"/><polygon class="cls-17" points="560 492 530 492 530 502 560 502 560 492 560 492"/><polygon class="cls-17" points="605 492 575 492 575 502 605 502 605 492 605 492"/><polygon class="cls-17" points="650 492 620 492 620 502 650 502 650 492 650 492"/><polygon class="cls-17" points="695 492 665 492 665 502 695 502 695 492 695 492"/><polygon class="cls-17" points="740 492 710 492 710 502 740 502 740 492 740 492"/><polygon class="cls-17" points="785 492 755 492 755 502 785 502 785 492 785 492"/><polygon class="cls-17" points="830 492 800 492 800 502 830 502 830 492 830 492"/><path class="cls-18" d="M1019.9,359.18s21.53,87.12-4.68,140.47"/><path class="cls-19" d="M1001.49,329.19c7.07,4.08,21.69,25.65,20,28.61s-27.69,1.09-34.76-3a14.79,14.79,0,1,1,14.79-25.62Z"/><path class="cls-19" d="M986.53,354.59c7.68-2.8,33.59-.13,34.76,3.09,1.12,3.07-17,21.91-24.64,24.71a14.79,14.79,0,1,1-10.12-27.8Z"/><path class="cls-19" d="M996.37,382.37c2.8-7.68,21.49-25.81,24.71-24.64s5.89,27.08,3.09,34.76a14.79,14.79,0,1,1-27.8-10.12Z"/><path class="cls-19" d="M1024,392.69c-4.08-7.07-6-33.06-3-34.77s24.53,12.9,28.61,20A14.79,14.79,0,1,1,1024,392.69Z"/><path class="cls-19" d="M1049.64,378.17c-8.05-1.41-29.16-16.68-28.56-20.05s25.65-10.5,33.69-9.08a14.79,14.79,0,1,1-5.13,29.13Z"/><path class="cls-19" d="M1055,349.19c-6.26,5.25-31.52,11.61-33.73,9s8.45-26.4,14.71-31.65a14.79,14.79,0,1,1,19,22.66Z"/><path class="cls-19" d="M1034,326.49c.24,8.17-10.45,31.92-13.87,32s-15.47-23-15.7-31.16a14.79,14.79,0,1,1,29.57-.86Z"/><circle class="cls-20" cx="1021.9" cy="357.18" r="11.37"/><path id="b307d008-1640-4a06-af2e-4466e39d32c3-111" class="cls-19" d="M1005,474.14c14.38,15.43,15.12,38.1,15.12,38.1s-22.56-2.34-36.94-17.76-15.12-38.1-15.12-38.1S990.63,458.71,1005,474.14Z"/><path id="e6bb151c-e5ac-48bf-b05a-35e8b71544cc-112" class="cls-19" d="M1050.26,498.22c-15.43,14.38-38.1,15.12-38.1,15.12s2.34-22.57,17.76-36.94,38.1-15.12,38.1-15.12S1065.69,483.84,1050.26,498.22Z"/><path id="e2659c84-c871-46e0-a841-faed920e56d0-113" class="cls-21" d="M1046.43,544H989.69a5.78,5.78,0,0,1-5.22-3.26l-12.36-25.39a5.81,5.81,0,0,1,2.68-7.76,5.74,5.74,0,0,1,2.54-.59h81.45a5.8,5.8,0,0,1,5.22,8.35l-12.35,25.39a5.82,5.82,0,0,1-5.22,3.27Z"/></g></g></svg>